# xmcd
#
# Track frame offsets:
#	150
#	16131
#	35388
#	54662
#	79504
#	95847
#	114559
#	138004
#	154933
#	182609
#
# Disc length: 2649 seconds
# Revision: 0
# Processed by: cddbd v1.5.2PL0 Copyright (c) Steve Scherf et al.
# Submitted via: dBpowerAMP V12.0
#
DISCID=750a570a
DTITLE=Markamasis - Jaypt'awi
DYEAR=2012
DGENRE=Latin
TTITLE0=Phiruña Kapu (糸紡ぎ)
TTITLE1=Jaypt'awi (黄昏のとき)
TTITLE2=Pankarita (愛しき花よ)
TTITLE3=Mallku Tunhan (賢者トゥンハン)
TTITLE4=Khuta Marka Wenkasi (湖畔の村ウェンカシ)
TTITLE5=Suma Warmisita (可憐な娘)
TTITLE6=Taicajan Chuimapa (母の心)
TTITLE7=Wiñaytaki (永遠に)
TTITLE8=Sonkoyman
TTITLE9=Paisanita (同郷の乙女)
EXTD=
EXTT0=
EXTT1=
EXTT2=
EXTT3=
EXTT4=
EXTT5=
EXTT6=
EXTT7=
EXTT8=
EXTT9=
PLAYORDER=
